<?xml version="1.0" encoding="UTF-8"?>
<!-- Generator: Adobe Illustrator 18.1.1, SVG Export Plug-In . SVG Version: 6.00 Build 0)  -->
<svg version="1.1" id="Layer_1" xmlns="http://www.w3.org/2000/svg" xmlns:xlink="http://www.w3.org/1999/xlink" x="0px" y="0px" viewBox="0 0 256 256" style="enable-background:new 0 0 256 256;" xml:space="preserve">
<style type="text/css">
	.st0{fill:#B92B27;}
	.st1{fill:#FFFFFF;}
</style>
<g>
	<rect x="0" y="0" class="st0" width="256" height="256"/>
	<path class="st1" d="M182.4,223.5c-18.9,0-28.4-11.1-36.1-24.9c-6.7,2.3-13.3,3.3-20.5,3.3c-40.7,0-80.1-31.7-80.1-78.1   c0-46.9,39.4-78.3,80.1-78.3c41.2,0,80.4,31.2,80.4,78.3c0,25.8-12.6,47.1-31.2,60.7c5.1,8.2,10.5,13.9,17.9,13.9   c8.2,0,11.5-6.4,12.3-11.7H217C218,192,213.7,223.5,182.4,223.5z"/>
	<path class="st0" d="M125.9,61.3c-29.7,0-42.8,21.2-42.8,62.5c0,41,13.1,62.2,42.8,62.2c4.9,0,9.2-0.8,12.8-1.8   c-5.9-11.5-13.4-25.6-28.6-25.6c-1.8,0-3.6,0.2-5.4,0.8l-3.9-9.3c5.7-4.6,14.8-7.4,25.1-7.4c19.2,0,29.2,9.2,36.6,20.7   c4.6-10,6.4-23.3,6.4-39.7C168.9,82.5,156.1,61.3,125.9,61.3z"/>
</g>
</svg>